<svg id="visual" viewBox="0 0 960 540" width="960" height="540" xmlns="http://www.w3.org/2000/svg" xmlns:xlink="http://www.w3.org/1999/xlink" version="1.1"><path d="M0 98L14.5 94.5C29 91 58 84 87.2 105.7C116.3 127.3 145.7 177.7 174.8 183.8C204 190 233 152 262 140.3C291 128.7 320 143.3 349 157.8C378 172.3 407 186.7 436.2 187.5C465.3 188.3 494.7 175.7 523.8 179.2C553 182.7 582 202.3 611 188.8C640 175.3 669 128.7 698 126C727 123.3 756 164.7 785.2 169.2C814.3 173.7 843.7 141.3 872.8 122.5C902 103.7 931 98.3 945.5 95.7L960 93L960 0L945.5 0C931 0 902 0 872.8 0C843.7 0 814.3 0 785.2 0C756 0 727 0 698 0C669 0 640 0 611 0C582 0 553 0 523.8 0C494.7 0 465.3 0 436.2 0C407 0 378 0 349 0C320 0 291 0 262 0C233 0 204 0 174.8 0C145.7 0 116.3 0 87.2 0C58 0 29 0 14.5 0L0 0Z" fill="#2b721b"></path><path d="M0 185L14.5 175C29 165 58 145 87.2 171C116.3 197 145.7 269 174.8 274.5C204 280 233 219 262 208.2C291 197.3 320 236.7 349 252.8C378 269 407 262 436.2 250.3C465.3 238.7 494.7 222.3 523.8 225.8C553 229.3 582 252.7 611 242.8C640 233 669 190 698 194.5C727 199 756 251 785.2 257.3C814.3 263.7 843.7 224.3 872.8 201C902 177.7 931 170.3 945.5 166.7L960 163L960 91L945.5 93.7C931 96.3 902 101.7 872.8 120.5C843.7 139.3 814.3 171.7 785.2 167.2C756 162.7 727 121.3 698 124C669 126.7 640 173.3 611 186.8C582 200.3 553 180.7 523.8 177.2C494.7 173.7 465.3 186.3 436.2 185.5C407 184.7 378 170.3 349 155.8C320 141.3 291 126.7 262 138.3C233 150 204 188 174.8 181.8C145.7 175.7 116.3 125.3 87.2 103.7C58 82 29 89 14.5 92.5L0 96Z" fill="#1e5711"></path><path d="M0 260L14.5 245.7C29 231.3 58 202.7 87.2 222.5C116.3 242.3 145.7 310.7 174.8 314.2C204 317.7 233 256.3 262 245.5C291 234.7 320 274.3 349 290.7C378 307 407 300 436.2 292C465.3 284 494.7 275 523.8 284C553 293 582 320 611 311.8C640 303.7 669 260.3 698 264.8C727 269.3 756 321.7 785.2 330.7C814.3 339.7 843.7 305.3 872.8 285.5C902 265.7 931 260.3 945.5 257.7L960 255L960 161L945.5 164.7C931 168.3 902 175.7 872.8 199C843.7 222.3 814.3 261.7 785.2 255.3C756 249 727 197 698 192.5C669 188 640 231 611 240.8C582 250.7 553 227.3 523.8 223.8C494.7 220.3 465.3 236.7 436.2 248.3C407 260 378 267 349 250.8C320 234.7 291 195.3 262 206.2C233 217 204 278 174.8 272.5C145.7 267 116.3 195 87.2 169C58 143 29 163 14.5 173L0 183Z" fill="#123e08"></path><path d="M0 314L14.5 315C29 316 58 318 87.2 340.5C116.3 363 145.7 406 174.8 412.2C204 418.3 233 387.7 262 385.8C291 384 320 411 349 421.8C378 432.7 407 427.3 436.2 422.8C465.3 418.3 494.7 414.7 523.8 420.2C553 425.7 582 440.3 611 431.3C640 422.3 669 389.7 698 384.2C727 378.7 756 400.3 785.2 408.5C814.3 416.7 843.7 411.3 872.8 401.5C902 391.7 931 377.3 945.5 370.2L960 363L960 253L945.5 255.7C931 258.3 902 263.7 872.8 283.5C843.7 303.3 814.3 337.7 785.2 328.7C756 319.7 727 267.3 698 262.8C669 258.3 640 301.7 611 309.8C582 318 553 291 523.8 282C494.7 273 465.3 282 436.2 290C407 298 378 305 349 288.7C320 272.3 291 232.7 262 243.5C233 254.3 204 315.7 174.8 312.2C145.7 308.7 116.3 240.3 87.2 220.5C58 200.7 29 229.3 14.5 243.7L0 258Z" fill="#123609"></path><path d="M0 541L14.5 541C29 541 58 541 87.2 541C116.3 541 145.7 541 174.8 541C204 541 233 541 262 541C291 541 320 541 349 541C378 541 407 541 436.2 541C465.3 541 494.7 541 523.8 541C553 541 582 541 611 541C640 541 669 541 698 541C727 541 756 541 785.2 541C814.3 541 843.7 541 872.8 541C902 541 931 541 945.5 541L960 541L960 361L945.5 368.2C931 375.3 902 389.7 872.8 399.5C843.7 409.3 814.3 414.7 785.2 406.5C756 398.3 727 376.7 698 382.2C669 387.7 640 420.3 611 429.3C582 438.3 553 423.7 523.8 418.2C494.7 412.7 465.3 416.3 436.2 420.8C407 425.3 378 430.7 349 419.8C320 409 291 382 262 383.8C233 385.7 204 416.3 174.8 410.2C145.7 404 116.3 361 87.2 338.5C58 316 29 314 14.5 313L0 312Z" fill="#112e09"></path></svg>