<svg id="visual" viewBox="0 0 960 540" width="960" height="540" xmlns="http://www.w3.org/2000/svg" xmlns:xlink="http://www.w3.org/1999/xlink" version="1.1"><rect x="0" y="0" width="960" height="540" fill="#001220"></rect><defs><linearGradient id="grad1_0" x1="43.8%" y1="0%" x2="100%" y2="100%"><stop offset="14.444444444444446%" stop-color="#001220" stop-opacity="1"></stop><stop offset="85.55555555555554%" stop-color="#001220" stop-opacity="1"></stop></linearGradient></defs><defs><linearGradient id="grad2_0" x1="0%" y1="0%" x2="56.3%" y2="100%"><stop offset="14.444444444444446%" stop-color="#001220" stop-opacity="1"></stop><stop offset="85.55555555555554%" stop-color="#001220" stop-opacity="1"></stop></linearGradient></defs><g transform="translate(960, 0)"><path d="M0 162C-15.2 144.8 -30.4 127.6 -50.5 122C-70.7 116.3 -95.8 122.1 -113.8 113.8C-131.9 105.6 -142.8 83.3 -149.7 62C-156.5 40.7 -159.3 20.3 -162 0L0 0Z" fill="#FBAE3C"></path></g><g transform="translate(0, 540)"><path d="M0 -162C20.8 -159.6 41.7 -157.3 62 -149.7C82.3 -142.1 102.1 -129.2 111.7 -111.7C121.3 -94.3 120.8 -72.2 127.5 -52.8C134.2 -33.4 148.1 -16.7 162 0L0 0Z" fill="#FBAE3C"></path></g></svg>