<svg id="visual" viewBox="0 0 540 960" width="540" height="960" xmlns="http://www.w3.org/2000/svg" xmlns:xlink="http://www.w3.org/1999/xlink" version="1.1"><rect x="0" y="0" width="540" height="960" fill="#001122"></rect><g transform="translate(-6.298610355805877 -17.940232593205195)"><path d="M81 -138.7C100.6 -128.9 109.2 -98.4 124.7 -71.9C140.2 -45.3 162.6 -22.7 170.1 4.3C177.6 31.3 170.2 62.7 151.7 84C133.2 105.4 103.6 116.8 76.5 132.1C49.3 147.4 24.7 166.7 -4.5 174.6C-33.7 182.5 -67.5 178.9 -88.1 159.8C-108.8 140.7 -116.3 106.1 -128.1 76.9C-139.9 47.7 -155.9 23.8 -159.6 -2.1C-163.2 -28 -154.3 -56 -139.3 -79.7C-124.3 -103.3 -103.2 -122.7 -78.9 -129.8C-54.7 -136.9 -27.3 -131.7 1.7 -134.6C30.7 -137.5 61.3 -148.4 81 -138.7" fill="#FCAF3C"></path></g></svg>