<svg id="visual" viewBox="0 0 960 540" width="960" height="540" xmlns="http://www.w3.org/2000/svg" xmlns:xlink="http://www.w3.org/1999/xlink" version="1.1"><rect x="0" y="0" width="960" height="540" fill="#001122"></rect><g transform="translate(39.476687903412184 31.929539604336725)"><path d="M69.1 -101.5C103.4 -70.3 154.4 -68.5 156.4 -53C158.4 -37.5 111.3 -8.3 87.3 16.9C63.4 42.2 62.5 63.6 51.8 88.3C41.1 113 20.6 141 3.5 136.1C-13.5 131.3 -27 93.5 -69.8 79.3C-112.6 65 -184.7 74.2 -216 52.6C-247.3 30.9 -237.8 -21.6 -208.5 -54.1C-179.2 -86.7 -130.2 -99.2 -92.1 -129.1C-54.1 -159.1 -27 -206.5 -4.8 -199.9C17.4 -193.3 34.9 -132.7 69.1 -101.5" fill="#FCAF3C"></path></g></svg>