<svg id="visual" viewBox="0 0 960 540" width="960" height="540" xmlns="http://www.w3.org/2000/svg" xmlns:xlink="http://www.w3.org/1999/xlink" version="1.1"><rect width="960" height="540" fill="#001122"></rect><g><g transform="translate(194 219)"><path d="M83.2 -29C94.3 7.3 80.6 49.7 49.6 73.5C18.5 97.3 -29.9 102.5 -59.5 81.2C-89 59.9 -99.8 12 -86.7 -27C-73.7 -65.9 -36.8 -95.9 -0.4 -95.7C36 -95.6 72 -65.3 83.2 -29Z" fill="#715DF2"></path></g><g transform="translate(448 67)"><path d="M70.5 -23.5C80.3 7.3 69.6 44.2 44.4 63C19.2 81.7 -20.6 82.4 -46.8 63.5C-73 44.7 -85.7 6.3 -75.7 -24.8C-65.6 -55.9 -32.8 -79.9 -1.2 -79.5C30.3 -79.1 60.7 -54.3 70.5 -23.5Z" fill="#715DF2"></path></g><g transform="translate(786 126)"><path d="M70.6 -19.9C82.1 12.5 75.7 53.9 49.9 73.8C24.1 93.7 -20.9 92.3 -48.5 71.2C-76 50.1 -86 9.4 -75 -22.3C-64.1 -54 -32 -76.8 -1.2 -76.4C29.5 -76 59.1 -52.4 70.6 -19.9Z" fill="#715DF2"></path></g></g></svg>