<svg id="visual" viewBox="0 0 960 540" width="960" height="540" xmlns="http://www.w3.org/2000/svg" xmlns:xlink="http://www.w3.org/1999/xlink" version="1.1"><rect x="0" y="0" width="960" height="540" fill="#001220"></rect><defs><linearGradient id="grad1_0" x1="43.8%" y1="100%" x2="100%" y2="0%"><stop offset="14.444444444444446%" stop-color="#fcaf3c" stop-opacity="1"></stop><stop offset="85.55555555555554%" stop-color="#fcaf3c" stop-opacity="1"></stop></linearGradient></defs><defs><linearGradient id="grad1_1" x1="43.8%" y1="100%" x2="100%" y2="0%"><stop offset="14.444444444444446%" stop-color="#fcaf3c" stop-opacity="1"></stop><stop offset="85.55555555555554%" stop-color="#e2695f" stop-opacity="1"></stop></linearGradient></defs><defs><linearGradient id="grad1_2" x1="43.8%" y1="100%" x2="100%" y2="0%"><stop offset="14.444444444444446%" stop-color="#97446e" stop-opacity="1"></stop><stop offset="85.55555555555554%" stop-color="#e2695f" stop-opacity="1"></stop></linearGradient></defs><defs><linearGradient id="grad1_3" x1="43.8%" y1="100%" x2="100%" y2="0%"><stop offset="14.444444444444446%" stop-color="#97446e" stop-opacity="1"></stop><stop offset="85.55555555555554%" stop-color="#3d3056" stop-opacity="1"></stop></linearGradient></defs><defs><linearGradient id="grad1_4" x1="43.8%" y1="100%" x2="100%" y2="0%"><stop offset="14.444444444444446%" stop-color="#001220" stop-opacity="1"></stop><stop offset="85.55555555555554%" stop-color="#3d3056" stop-opacity="1"></stop></linearGradient></defs><defs><linearGradient id="grad2_0" x1="0%" y1="100%" x2="56.3%" y2="0%"><stop offset="14.444444444444446%" stop-color="#fcaf3c" stop-opacity="1"></stop><stop offset="85.55555555555554%" stop-color="#fcaf3c" stop-opacity="1"></stop></linearGradient></defs><defs><linearGradient id="grad2_1" x1="0%" y1="100%" x2="56.3%" y2="0%"><stop offset="14.444444444444446%" stop-color="#e2695f" stop-opacity="1"></stop><stop offset="85.55555555555554%" stop-color="#fcaf3c" stop-opacity="1"></stop></linearGradient></defs><defs><linearGradient id="grad2_2" x1="0%" y1="100%" x2="56.3%" y2="0%"><stop offset="14.444444444444446%" stop-color="#e2695f" stop-opacity="1"></stop><stop offset="85.55555555555554%" stop-color="#97446e" stop-opacity="1"></stop></linearGradient></defs><defs><linearGradient id="grad2_3" x1="0%" y1="100%" x2="56.3%" y2="0%"><stop offset="14.444444444444446%" stop-color="#3d3056" stop-opacity="1"></stop><stop offset="85.55555555555554%" stop-color="#97446e" stop-opacity="1"></stop></linearGradient></defs><defs><linearGradient id="grad2_4" x1="0%" y1="100%" x2="56.3%" y2="0%"><stop offset="14.444444444444446%" stop-color="#3d3056" stop-opacity="1"></stop><stop offset="85.55555555555554%" stop-color="#001220" stop-opacity="1"></stop></linearGradient></defs><g transform="translate(960, 540)"><path d="M-216 0C-208.2 -21.8 -200.4 -43.5 -190.2 -61.8C-180 -80.1 -167.3 -94.9 -157.8 -114.6C-148.2 -134.3 -141.8 -158.8 -127 -174.7C-112.1 -190.7 -88.7 -198.1 -66.1 -203.5C-43.6 -209 -21.8 -212.5 0 -216L0 0Z" fill="#19233d"></path><path d="M-172.8 0C-166.6 -17.4 -160.4 -34.8 -152.2 -49.4C-144 -64.1 -133.8 -76 -126.2 -91.7C-118.6 -107.4 -113.5 -127 -101.6 -139.8C-89.7 -152.6 -71 -158.5 -52.9 -162.8C-34.8 -167.2 -17.4 -170 0 -172.8L0 0Z" fill="#693b68"></path><path d="M-129.6 0C-124.9 -13.1 -120.3 -26.1 -114.1 -37.1C-108 -48.1 -100.4 -57 -94.7 -68.8C-88.9 -80.6 -85.1 -95.3 -76.2 -104.8C-67.2 -114.4 -53.2 -118.8 -39.7 -122.1C-26.1 -125.4 -13.1 -127.5 0 -129.6L0 0Z" fill="#c1526b"></path><path d="M-86.4 0C-83.3 -8.7 -80.2 -17.4 -76.1 -24.7C-72 -32 -66.9 -38 -63.1 -45.8C-59.3 -53.7 -56.7 -63.5 -50.8 -69.9C-44.8 -76.3 -35.5 -79.2 -26.5 -81.4C-17.4 -83.6 -8.7 -85 0 -86.4L0 0Z" fill="#f7894d"></path><path d="M-43.2 0C-41.6 -4.4 -40.1 -8.7 -38 -12.4C-36 -16 -33.5 -19 -31.6 -22.9C-29.6 -26.9 -28.4 -31.8 -25.4 -34.9C-22.4 -38.1 -17.7 -39.6 -13.2 -40.7C-8.7 -41.8 -4.4 -42.5 0 -43.2L0 0Z" fill="#fcaf3c"></path></g><g transform="translate(0, 0)"><path d="M216 0C196.9 16.5 177.9 33 175 56.9C172.1 80.7 185.5 112 174.7 127C164 141.9 129.3 140.5 107 147.2C84.7 154 74.8 168.8 59 181.7C43.3 194.5 21.6 205.2 0 216L0 0Z" fill="#19233d"></path><path d="M172.8 0C157.5 13.2 142.3 26.4 140 45.5C137.7 64.6 148.4 89.6 139.8 101.6C131.2 113.5 103.4 112.4 85.6 117.8C67.7 123.2 59.8 135.1 47.2 145.3C34.6 155.6 17.3 164.2 0 172.8L0 0Z" fill="#693b68"></path><path d="M129.6 0C118.2 9.9 106.7 19.8 105 34.1C103.3 48.4 111.3 67.2 104.8 76.2C98.4 85.1 77.6 84.3 64.2 88.3C50.8 92.4 44.9 101.3 35.4 109C26 116.7 13 123.1 0 129.6L0 0Z" fill="#c1526b"></path><path d="M86.4 0C78.8 6.6 71.1 13.2 70 22.7C68.9 32.3 74.2 44.8 69.9 50.8C65.6 56.8 51.7 56.2 42.8 58.9C33.9 61.6 29.9 67.5 23.6 72.7C17.3 77.8 8.7 82.1 0 86.4L0 0Z" fill="#f7894d"></path><path d="M43.2 0C39.4 3.3 35.6 6.6 35 11.4C34.4 16.1 37.1 22.4 34.9 25.4C32.8 28.4 25.9 28.1 21.4 29.4C16.9 30.8 15 33.8 11.8 36.3C8.7 38.9 4.3 41 0 43.2L0 0Z" fill="#fcaf3c"></path></g></svg>