<svg id="visual" viewBox="0 0 900 600" width="900" height="600" xmlns="http://www.w3.org/2000/svg" xmlns:xlink="http://www.w3.org/1999/xlink" version="1.1"><rect x="0" y="0" width="900" height="600" fill="#001220"></rect><path d="M0 511L21.5 510.7C43 510.3 86 509.7 128.8 508.5C171.7 507.3 214.3 505.7 257.2 510C300 514.3 343 524.7 385.8 529.3C428.7 534 471.3 533 514.2 527.2C557 521.3 600 510.7 642.8 510.7C685.7 510.7 728.3 521.3 771.2 525.5C814 529.7 857 527.3 878.5 526.2L900 525L900 601L878.5 601C857 601 814 601 771.2 601C728.3 601 685.7 601 642.8 601C600 601 557 601 514.2 601C471.3 601 428.7 601 385.8 601C343 601 300 601 257.2 601C214.3 601 171.7 601 128.8 601C86 601 43 601 21.5 601L0 601Z" fill="#4facf7"></path><path d="M0 530L21.5 533.5C43 537 86 544 128.8 545C171.7 546 214.3 541 257.2 540.5C300 540 343 544 385.8 546.2C428.7 548.3 471.3 548.7 514.2 548.3C557 548 600 547 642.8 542.2C685.7 537.3 728.3 528.7 771.2 527.5C814 526.3 857 532.7 878.5 535.8L900 539L900 601L878.5 601C857 601 814 601 771.2 601C728.3 601 685.7 601 642.8 601C600 601 557 601 514.2 601C471.3 601 428.7 601 385.8 601C343 601 300 601 257.2 601C214.3 601 171.7 601 128.8 601C86 601 43 601 21.5 601L0 601Z" fill="#2b9dfc"></path><path d="M0 547L21.5 546.3C43 545.7 86 544.3 128.8 544.5C171.7 544.7 214.3 546.3 257.2 549C300 551.7 343 555.3 385.8 555.2C428.7 555 471.3 551 514.2 548.3C557 545.7 600 544.3 642.8 542.3C685.7 540.3 728.3 537.7 771.2 539.8C814 542 857 549 878.5 552.5L900 556L900 601L878.5 601C857 601 814 601 771.2 601C728.3 601 685.7 601 642.8 601C600 601 557 601 514.2 601C471.3 601 428.7 601 385.8 601C343 601 300 601 257.2 601C214.3 601 171.7 601 128.8 601C86 601 43 601 21.5 601L0 601Z" fill="#008cff"></path><path d="M0 566L21.5 567.5C43 569 86 572 128.8 570.3C171.7 568.7 214.3 562.3 257.2 559.7C300 557 343 558 385.8 558.8C428.7 559.7 471.3 560.3 514.2 561.3C557 562.3 600 563.7 642.8 562.3C685.7 561 728.3 557 771.2 558.7C814 560.3 857 567.7 878.5 571.3L900 575L900 601L878.5 601C857 601 814 601 771.2 601C728.3 601 685.7 601 642.8 601C600 601 557 601 514.2 601C471.3 601 428.7 601 385.8 601C343 601 300 601 257.2 601C214.3 601 171.7 601 128.8 601C86 601 43 601 21.5 601L0 601Z" fill="#007aff"></path><path d="M0 588L21.5 586.8C43 585.7 86 583.3 128.8 581.7C171.7 580 214.3 579 257.2 577.7C300 576.3 343 574.7 385.8 576C428.7 577.3 471.3 581.7 514.2 582C557 582.3 600 578.7 642.8 579C685.7 579.3 728.3 583.7 771.2 583.7C814 583.7 857 579.3 878.5 577.2L900 575L900 601L878.5 601C857 601 814 601 771.2 601C728.3 601 685.7 601 642.8 601C600 601 557 601 514.2 601C471.3 601 428.7 601 385.8 601C343 601 300 601 257.2 601C214.3 601 171.7 601 128.8 601C86 601 43 601 21.5 601L0 601Z" fill="#0066ff"></path></svg>