<svg id="visual" viewBox="0 0 960 540" width="960" height="540" xmlns="http://www.w3.org/2000/svg" xmlns:xlink="http://www.w3.org/1999/xlink" version="1.1"><rect x="0" y="0" width="960" height="540" fill="#001220"></rect><path d="M0 420L22.8 421.2C45.7 422.3 91.3 424.7 137 429C182.7 433.3 228.3 439.7 274 437.7C319.7 435.7 365.3 425.3 411.2 422.5C457 419.7 503 424.3 548.8 423.5C594.7 422.7 640.3 416.3 686 414C731.7 411.7 777.3 413.3 823 415.5C868.7 417.7 914.3 420.3 937.2 421.7L960 423L960 541L937.2 541C914.3 541 868.7 541 823 541C777.3 541 731.7 541 686 541C640.3 541 594.7 541 548.8 541C503 541 457 541 411.2 541C365.3 541 319.7 541 274 541C228.3 541 182.7 541 137 541C91.3 541 45.7 541 22.8 541L0 541Z" fill="#fcaf3c"></path><path d="M0 449L22.8 447C45.7 445 91.3 441 137 445.2C182.7 449.3 228.3 461.7 274 463.2C319.7 464.7 365.3 455.3 411.2 449.2C457 443 503 440 548.8 444.5C594.7 449 640.3 461 686 463.2C731.7 465.3 777.3 457.7 823 453.2C868.7 448.7 914.3 447.3 937.2 446.7L960 446L960 541L937.2 541C914.3 541 868.7 541 823 541C777.3 541 731.7 541 686 541C640.3 541 594.7 541 548.8 541C503 541 457 541 411.2 541C365.3 541 319.7 541 274 541C228.3 541 182.7 541 137 541C91.3 541 45.7 541 22.8 541L0 541Z" fill="#ffb180"></path><path d="M0 475L22.8 473.2C45.7 471.3 91.3 467.7 137 463.8C182.7 460 228.3 456 274 455C319.7 454 365.3 456 411.2 457.7C457 459.3 503 460.7 548.8 460.8C594.7 461 640.3 460 686 460.8C731.7 461.7 777.3 464.3 823 468C868.7 471.7 914.3 476.3 937.2 478.7L960 481L960 541L937.2 541C914.3 541 868.7 541 823 541C777.3 541 731.7 541 686 541C640.3 541 594.7 541 548.8 541C503 541 457 541 411.2 541C365.3 541 319.7 541 274 541C228.3 541 182.7 541 137 541C91.3 541 45.7 541 22.8 541L0 541Z" fill="#ffc0b5"></path><path d="M0 506L22.8 501.2C45.7 496.3 91.3 486.7 137 484.3C182.7 482 228.3 487 274 487.8C319.7 488.7 365.3 485.3 411.2 484.5C457 483.7 503 485.3 548.8 488C594.7 490.7 640.3 494.3 686 494.7C731.7 495 777.3 492 823 491.2C868.7 490.3 914.3 491.7 937.2 492.3L960 493L960 541L937.2 541C914.3 541 868.7 541 823 541C777.3 541 731.7 541 686 541C640.3 541 594.7 541 548.8 541C503 541 457 541 411.2 541C365.3 541 319.7 541 274 541C228.3 541 182.7 541 137 541C91.3 541 45.7 541 22.8 541L0 541Z" fill="#fdd5da"></path><path d="M0 523L22.8 519C45.7 515 91.3 507 137 505.3C182.7 503.7 228.3 508.3 274 510.8C319.7 513.3 365.3 513.7 411.2 511.3C457 509 503 504 548.8 504C594.7 504 640.3 509 686 511.5C731.7 514 777.3 514 823 515.7C868.7 517.3 914.3 520.7 937.2 522.3L960 524L960 541L937.2 541C914.3 541 868.7 541 823 541C777.3 541 731.7 541 686 541C640.3 541 594.7 541 548.8 541C503 541 457 541 411.2 541C365.3 541 319.7 541 274 541C228.3 541 182.7 541 137 541C91.3 541 45.7 541 22.8 541L0 541Z" fill="#f6edf1"></path></svg>