<svg id="visual" viewBox="0 0 540 960" width="540" height="960" xmlns="http://www.w3.org/2000/svg" xmlns:xlink="http://www.w3.org/1999/xlink" version="1.1"><rect x="0" y="0" width="540" height="960" fill="#001220"></rect><path d="M0 884L12.8 883.8C25.7 883.7 51.3 883.3 77 883.8C102.7 884.3 128.3 885.7 154 890.3C179.7 895 205.3 903 231.2 902.8C257 902.7 283 894.3 308.8 893.7C334.7 893 360.3 900 386 902.5C411.7 905 437.3 903 463 900.5C488.7 898 514.3 895 527.2 893.5L540 892L540 961L527.2 961C514.3 961 488.7 961 463 961C437.3 961 411.7 961 386 961C360.3 961 334.7 961 308.8 961C283 961 257 961 231.2 961C205.3 961 179.7 961 154 961C128.3 961 102.7 961 77 961C51.3 961 25.7 961 12.8 961L0 961Z" fill="#fcaf3c"></path><path d="M0 905L12.8 903.2C25.7 901.3 51.3 897.7 77 898.3C102.7 899 128.3 904 154 905.5C179.7 907 205.3 905 231.2 906.2C257 907.3 283 911.7 308.8 913.8C334.7 916 360.3 916 386 915.2C411.7 914.3 437.3 912.7 463 912.5C488.7 912.3 514.3 913.7 527.2 914.3L540 915L540 961L527.2 961C514.3 961 488.7 961 463 961C437.3 961 411.7 961 386 961C360.3 961 334.7 961 308.8 961C283 961 257 961 231.2 961C205.3 961 179.7 961 154 961C128.3 961 102.7 961 77 961C51.3 961 25.7 961 12.8 961L0 961Z" fill="#ffb180"></path><path d="M0 920L12.8 920.2C25.7 920.3 51.3 920.7 77 920C102.7 919.3 128.3 917.7 154 918.2C179.7 918.7 205.3 921.3 231.2 922.7C257 924 283 924 308.8 922.8C334.7 921.7 360.3 919.3 386 920.3C411.7 921.3 437.3 925.7 463 924.7C488.7 923.7 514.3 917.3 527.2 914.2L540 911L540 961L527.2 961C514.3 961 488.7 961 463 961C437.3 961 411.7 961 386 961C360.3 961 334.7 961 308.8 961C283 961 257 961 231.2 961C205.3 961 179.7 961 154 961C128.3 961 102.7 961 77 961C51.3 961 25.7 961 12.8 961L0 961Z" fill="#ffc0b5"></path><path d="M0 935L12.8 933C25.7 931 51.3 927 77 927.5C102.7 928 128.3 933 154 932.8C179.7 932.7 205.3 927.3 231.2 924.8C257 922.3 283 922.7 308.8 925.7C334.7 928.7 360.3 934.3 386 937C411.7 939.7 437.3 939.3 463 936.2C488.7 933 514.3 927 527.2 924L540 921L540 961L527.2 961C514.3 961 488.7 961 463 961C437.3 961 411.7 961 386 961C360.3 961 334.7 961 308.8 961C283 961 257 961 231.2 961C205.3 961 179.7 961 154 961C128.3 961 102.7 961 77 961C51.3 961 25.7 961 12.8 961L0 961Z" fill="#fdd5da"></path><path d="M0 943L12.8 942.8C25.7 942.7 51.3 942.3 77 943C102.7 943.7 128.3 945.3 154 946.5C179.7 947.7 205.3 948.3 231.2 947.7C257 947 283 945 308.8 945.2C334.7 945.3 360.3 947.7 386 946.3C411.7 945 437.3 940 463 938.3C488.7 936.7 514.3 938.3 527.2 939.2L540 940L540 961L527.2 961C514.3 961 488.7 961 463 961C437.3 961 411.7 961 386 961C360.3 961 334.7 961 308.8 961C283 961 257 961 231.2 961C205.3 961 179.7 961 154 961C128.3 961 102.7 961 77 961C51.3 961 25.7 961 12.8 961L0 961Z" fill="#f6edf1"></path></svg>