<svg id="visual" viewBox="0 0 960 540" width="960" height="540" xmlns="http://www.w3.org/2000/svg" xmlns:xlink="http://www.w3.org/1999/xlink" version="1.1"><rect width="960" height="540" fill="#CCCCCC"></rect><g><g transform="translate(53 501)"><path d="M0 -23.7L20.5 -11.8L20.5 11.8L0 23.7L-20.5 11.8L-20.5 -11.8Z" fill="none" stroke="#adadad" stroke-width="1"></path></g><g transform="translate(934 292)"><path d="M0 -23L19.9 -11.5L19.9 11.5L0 23L-19.9 11.5L-19.9 -11.5Z" fill="none" stroke="#adadad" stroke-width="1"></path></g><g transform="translate(703 230)"><path d="M0 -23L19.9 -11.5L19.9 11.5L0 23L-19.9 11.5L-19.9 -11.5Z" fill="none" stroke="#adadad" stroke-width="1"></path></g><g transform="translate(907 162)"><path d="M0 -23L19.9 -11.5L19.9 11.5L0 23L-19.9 11.5L-19.9 -11.5Z" fill="none" stroke="#adadad" stroke-width="1"></path></g><g transform="translate(200 359)"><path d="M0 -23L19.9 -11.5L19.9 11.5L0 23L-19.9 11.5L-19.9 -11.5Z" fill="none" stroke="#adadad" stroke-width="1"></path></g><g transform="translate(841 381)"><path d="M0 -23L19.9 -11.5L19.9 11.5L0 23L-19.9 11.5L-19.9 -11.5Z" stroke="#adadad" fill="none" stroke-width="1"></path></g><g transform="translate(851 509)"><path d="M0 -23L19.9 -11.5L19.9 11.5L0 23L-19.9 11.5L-19.9 -11.5Z" stroke="#adadad" fill="none" stroke-width="1"></path></g><g transform="translate(637 242)"><path d="M0 -23L19.9 -11.5L19.9 11.5L0 23L-19.9 11.5L-19.9 -11.5Z" stroke="#adadad" fill="none" stroke-width="1"></path></g><g transform="translate(4 153)"><path d="M0 -23L19.9 -11.5L19.9 11.5L0 23L-19.9 11.5L-19.9 -11.5Z" stroke="#adadad" fill="none" stroke-width="1"></path></g><g transform="translate(493 454)"><path d="M0 -23L19.9 -11.5L19.9 11.5L0 23L-19.9 11.5L-19.9 -11.5Z" stroke="#adadad" fill="none" stroke-width="1"></path></g><g transform="translate(861 18)"><path d="M0 -23L19.9 -11.5L19.9 11.5L0 23L-19.9 11.5L-19.9 -11.5Z" stroke="#adadad" fill="none" stroke-width="1"></path></g><g transform="translate(695 308)"><path d="M0 -23L19.9 -11.5L19.9 11.5L0 23L-19.9 11.5L-19.9 -11.5Z" stroke="#adadad" fill="none" stroke-width="1"></path></g><g transform="translate(34 73)"><path d="M0 -23L19.9 -11.5L19.9 11.5L0 23L-19.9 11.5L-19.9 -11.5Z" stroke="#adadad" fill="none" stroke-width="1"></path></g><g transform="translate(394 243)"><path d="M0 -23L19.9 -11.5L19.9 11.5L0 23L-19.9 11.5L-19.9 -11.5Z" stroke="#adadad" fill="none" stroke-width="1"></path></g><g transform="translate(366 156)"><path d="M0 -23L19.9 -11.5L19.9 11.5L0 23L-19.9 11.5L-19.9 -11.5Z" stroke="#adadad" fill="none" stroke-width="1"></path></g><g transform="translate(122 390)"><path d="M0 -23L19.9 -11.5L19.9 11.5L0 23L-19.9 11.5L-19.9 -11.5Z" stroke="#adadad" fill="none" stroke-width="1"></path></g><g transform="translate(356 340)"><path d="M0 -23L19.9 -11.5L19.9 11.5L0 23L-19.9 11.5L-19.9 -11.5Z" stroke="#adadad" fill="none" stroke-width="1"></path></g></g></svg>