<svg id="visual" viewBox="0 0 960 540" width="960" height="540" xmlns="http://www.w3.org/2000/svg" xmlns:xlink="http://www.w3.org/1999/xlink" version="1.1"><rect width="960" height="540" fill="#c9c7c7"></rect><g><g transform="translate(463 420)"><path d="M0 -23.7L22.5 -7.3L13.9 19.1L-13.9 19.1L-22.5 -7.3Z" fill="none" stroke="#b1b1b1" stroke-width="1"></path></g><g transform="translate(260 440)"><path d="M0 -23L21.9 -7.1L13.5 18.6L-13.5 18.6L-21.9 -7.1Z" fill="none" stroke="#b1b1b1" stroke-width="1"></path></g><g transform="translate(116 150)"><path d="M0 -23L21.9 -7.1L13.5 18.6L-13.5 18.6L-21.9 -7.1Z" fill="none" stroke="#b1b1b1" stroke-width="1"></path></g><g transform="translate(696 267)"><path d="M0 -23L21.9 -7.1L13.5 18.6L-13.5 18.6L-21.9 -7.1Z" fill="none" stroke="#b1b1b1" stroke-width="1"></path></g><g transform="translate(325 400)"><path d="M0 -23L21.9 -7.1L13.5 18.6L-13.5 18.6L-21.9 -7.1Z" fill="none" stroke="#b1b1b1" stroke-width="1"></path></g><g transform="translate(883 139)"><path d="M0 -23L21.9 -7.1L13.5 18.6L-13.5 18.6L-21.9 -7.1Z" stroke="#b1b1b1" fill="none" stroke-width="1"></path></g><g transform="translate(165 521)"><path d="M0 -23L21.9 -7.1L13.5 18.6L-13.5 18.6L-21.9 -7.1Z" stroke="#b1b1b1" fill="none" stroke-width="1"></path></g><g transform="translate(789 82)"><path d="M0 -23L21.9 -7.1L13.5 18.6L-13.5 18.6L-21.9 -7.1Z" stroke="#b1b1b1" fill="none" stroke-width="1"></path></g><g transform="translate(52 308)"><path d="M0 -23L21.9 -7.1L13.5 18.6L-13.5 18.6L-21.9 -7.1Z" stroke="#b1b1b1" fill="none" stroke-width="1"></path></g><g transform="translate(565 35)"><path d="M0 -23L21.9 -7.1L13.5 18.6L-13.5 18.6L-21.9 -7.1Z" stroke="#b1b1b1" fill="none" stroke-width="1"></path></g><g transform="translate(611 152)"><path d="M0 -23L21.9 -7.1L13.5 18.6L-13.5 18.6L-21.9 -7.1Z" stroke="#b1b1b1" fill="none" stroke-width="1"></path></g><g transform="translate(552 462)"><path d="M0 -23L21.9 -7.1L13.5 18.6L-13.5 18.6L-21.9 -7.1Z" stroke="#b1b1b1" fill="none" stroke-width="1"></path></g><g transform="translate(35 416)"><path d="M0 -23L21.9 -7.1L13.5 18.6L-13.5 18.6L-21.9 -7.1Z" stroke="#b1b1b1" fill="none" stroke-width="1"></path></g><g transform="translate(59 35)"><path d="M0 -23L21.9 -7.1L13.5 18.6L-13.5 18.6L-21.9 -7.1Z" stroke="#b1b1b1" fill="none" stroke-width="1"></path></g><g transform="translate(94 531)"><path d="M0 -23L21.9 -7.1L13.5 18.6L-13.5 18.6L-21.9 -7.1Z" stroke="#b1b1b1" fill="none" stroke-width="1"></path></g><g transform="translate(191 29)"><path d="M0 -23L21.9 -7.1L13.5 18.6L-13.5 18.6L-21.9 -7.1Z" stroke="#b1b1b1" fill="none" stroke-width="1"></path></g><g transform="translate(255 84)"><path d="M0 -23L21.9 -7.1L13.5 18.6L-13.5 18.6L-21.9 -7.1Z" stroke="#b1b1b1" fill="none" stroke-width="1"></path></g></g></svg>