<svg id="visual" viewBox="0 0 900 600" width="900" height="600" xmlns="http://www.w3.org/2000/svg" xmlns:xlink="http://www.w3.org/1999/xlink" version="1.1"><rect width="900" height="600" fill="#FFFFFF"></rect><g><g transform="translate(235 128)"><path d="M0 -24.2L20.9 -12.1L20.9 12.1L0 24.2L-20.9 12.1L-20.9 -12.1Z" fill="none" stroke="#e6e6e6" stroke-width="1"></path></g><g transform="translate(171 423)"><path d="M0 -24L20.8 -12L20.8 12L0 24L-20.8 12L-20.8 -12Z" fill="none" stroke="#e6e6e6" stroke-width="1"></path></g><g transform="translate(637 421)"><path d="M0 -24L20.8 -12L20.8 12L0 24L-20.8 12L-20.8 -12Z" fill="none" stroke="#e6e6e6" stroke-width="1"></path></g><g transform="translate(22 432)"><path d="M0 -24L20.8 -12L20.8 12L0 24L-20.8 12L-20.8 -12Z" fill="none" stroke="#e6e6e6" stroke-width="1"></path></g><g transform="translate(892 144)"><path d="M0 -24L20.8 -12L20.8 12L0 24L-20.8 12L-20.8 -12Z" fill="none" stroke="#e6e6e6" stroke-width="1"></path></g><g transform="translate(485 329)"><path d="M0 -24L20.8 -12L20.8 12L0 24L-20.8 12L-20.8 -12Z" fill="none" stroke="#e6e6e6" stroke-width="1"></path></g><g transform="translate(550 276)"><path d="M0 -24L20.8 -12L20.8 12L0 24L-20.8 12L-20.8 -12Z" fill="none" stroke="#e6e6e6" stroke-width="1"></path></g><g transform="translate(433 159)"><path d="M0 -24L20.8 -12L20.8 12L0 24L-20.8 12L-20.8 -12Z" fill="none" stroke="#e6e6e6" stroke-width="1"></path></g><g transform="translate(351 469)"><path d="M0 -24L20.8 -12L20.8 12L0 24L-20.8 12L-20.8 -12Z" fill="none" stroke="#e6e6e6" stroke-width="1"></path></g><g transform="translate(500 474)"><path d="M0 -24L20.8 -12L20.8 12L0 24L-20.8 12L-20.8 -12Z" fill="none" stroke="#e6e6e6" stroke-width="1"></path></g><g transform="translate(703 300)"><path d="M0 -24L20.8 -12L20.8 12L0 24L-20.8 12L-20.8 -12Z" fill="none" stroke="#e6e6e6" stroke-width="1"></path></g><g transform="translate(45 176)"><path d="M0 -24L20.8 -12L20.8 12L0 24L-20.8 12L-20.8 -12Z" fill="none" stroke="#e6e6e6" stroke-width="1"></path></g><g transform="translate(285 598)"><path d="M0 -24L20.8 -12L20.8 12L0 24L-20.8 12L-20.8 -12Z" fill="none" stroke="#e6e6e6" stroke-width="1"></path></g><g transform="translate(556 329)"><path d="M0 -24L20.8 -12L20.8 12L0 24L-20.8 12L-20.8 -12Z" fill="none" stroke="#e6e6e6" stroke-width="1"></path></g><g transform="translate(164 102)"><path d="M0 -24L20.8 -12L20.8 12L0 24L-20.8 12L-20.8 -12Z" fill="none" stroke="#e6e6e6" stroke-width="1"></path></g><g transform="translate(29 119)"><path d="M0 -24L20.8 -12L20.8 12L0 24L-20.8 12L-20.8 -12Z" fill="none" stroke="#e6e6e6" stroke-width="1"></path></g><g transform="translate(235 553)"><path d="M0 -24L20.8 -12L20.8 12L0 24L-20.8 12L-20.8 -12Z" fill="none" stroke="#e6e6e6" stroke-width="1"></path></g><g transform="translate(224 206)"><path d="M0 -24L20.8 -12L20.8 12L0 24L-20.8 12L-20.8 -12Z" fill="none" stroke="#e6e6e6" stroke-width="1"></path></g><g transform="translate(692 145)"><path d="M0 -24L20.8 -12L20.8 12L0 24L-20.8 12L-20.8 -12Z" fill="none" stroke="#e6e6e6" stroke-width="1"></path></g><g transform="translate(615 109)"><path d="M0 -24L20.8 -12L20.8 12L0 24L-20.8 12L-20.8 -12Z" fill="none" stroke="#e6e6e6" stroke-width="1"></path></g><g transform="translate(311 194)"><path d="M0 -24L20.8 -12L20.8 12L0 24L-20.8 12L-20.8 -12Z" fill="none" stroke="#e6e6e6" stroke-width="1"></path></g><g transform="translate(590 157)"><path d="M0 -24L20.8 -12L20.8 12L0 24L-20.8 12L-20.8 -12Z" fill="none" stroke="#e6e6e6" stroke-width="1"></path></g><g transform="translate(433 7)"><path d="M0 -24L20.8 -12L20.8 12L0 24L-20.8 12L-20.8 -12Z" fill="none" stroke="#e6e6e6" stroke-width="1"></path></g><g transform="translate(2 590)"><path d="M0 -24L20.8 -12L20.8 12L0 24L-20.8 12L-20.8 -12Z" fill="none" stroke="#e6e6e6" stroke-width="1"></path></g><g transform="translate(380 595)"><path d="M0 -24L20.8 -12L20.8 12L0 24L-20.8 12L-20.8 -12Z" fill="none" stroke="#e6e6e6" stroke-width="1"></path></g><g transform="translate(758 62)"><path d="M0 -24L20.8 -12L20.8 12L0 24L-20.8 12L-20.8 -12Z" fill="none" stroke="#e6e6e6" stroke-width="1"></path></g><g transform="translate(422 74)"><path d="M0 -24L20.8 -12L20.8 12L0 24L-20.8 12L-20.8 -12Z" fill="none" stroke="#e6e6e6" stroke-width="1"></path></g><g transform="translate(65 547)"><path d="M0 -24L20.8 -12L20.8 12L0 24L-20.8 12L-20.8 -12Z" fill="none" stroke="#e6e6e6" stroke-width="1"></path></g><g transform="translate(332 320)"><path d="M0 -24L20.8 -12L20.8 12L0 24L-20.8 12L-20.8 -12Z" fill="none" stroke="#e6e6e6" stroke-width="1"></path></g><g transform="translate(158 285)"><path d="M0 -24L20.8 -12L20.8 12L0 24L-20.8 12L-20.8 -12Z" fill="none" stroke="#e6e6e6" stroke-width="1"></path></g><g transform="translate(510 144)"><path d="M0 -24L20.8 -12L20.8 12L0 24L-20.8 12L-20.8 -12Z" fill="none" stroke="#e6e6e6" stroke-width="1"></path></g><g transform="translate(884 312)"><path d="M0 -24L20.8 -12L20.8 12L0 24L-20.8 12L-20.8 -12Z" fill="none" stroke="#e6e6e6" stroke-width="1"></path></g><g transform="translate(881 471)"><path d="M0 -24L20.8 -12L20.8 12L0 24L-20.8 12L-20.8 -12Z" fill="none" stroke="#e6e6e6" stroke-width="1"></path></g></g></svg>