<svg id="visual" viewBox="0 0 960 540" width="960" height="540" xmlns="http://www.w3.org/2000/svg" xmlns:xlink="http://www.w3.org/1999/xlink" version="1.1"><rect width="960" height="540" fill="#CCCCCC"></rect><g><g transform="translate(528 234)"><path d="M0 -23.7L23.7 0L0 23.7L-23.7 0Z" fill="none" stroke="#adadad" stroke-width="1"></path></g><g transform="translate(234 68)"><path d="M0 -23L23 0L0 23L-23 0Z" fill="none" stroke="#adadad" stroke-width="1"></path></g><g transform="translate(170 220)"><path d="M0 -23L23 0L0 23L-23 0Z" fill="none" stroke="#adadad" stroke-width="1"></path></g><g transform="translate(716 379)"><path d="M0 -23L23 0L0 23L-23 0Z" fill="none" stroke="#adadad" stroke-width="1"></path></g><g transform="translate(446 262)"><path d="M0 -23L23 0L0 23L-23 0Z" fill="none" stroke="#adadad" stroke-width="1"></path></g><g transform="translate(138 299)"><path d="M0 -23L23 0L0 23L-23 0Z" stroke="#adadad" fill="none" stroke-width="1"></path></g><g transform="translate(378 34)"><path d="M0 -23L23 0L0 23L-23 0Z" stroke="#adadad" fill="none" stroke-width="1"></path></g><g transform="translate(584 313)"><path d="M0 -23L23 0L0 23L-23 0Z" stroke="#adadad" fill="none" stroke-width="1"></path></g><g transform="translate(892 63)"><path d="M0 -23L23 0L0 23L-23 0Z" stroke="#adadad" fill="none" stroke-width="1"></path></g><g transform="translate(658 143)"><path d="M0 -23L23 0L0 23L-23 0Z" stroke="#adadad" fill="none" stroke-width="1"></path></g><g transform="translate(151 384)"><path d="M0 -23L23 0L0 23L-23 0Z" stroke="#adadad" fill="none" stroke-width="1"></path></g><g transform="translate(555 511)"><path d="M0 -23L23 0L0 23L-23 0Z" stroke="#adadad" fill="none" stroke-width="1"></path></g><g transform="translate(374 98)"><path d="M0 -23L23 0L0 23L-23 0Z" stroke="#adadad" fill="none" stroke-width="1"></path></g><g transform="translate(776 137)"><path d="M0 -23L23 0L0 23L-23 0Z" stroke="#adadad" fill="none" stroke-width="1"></path></g><g transform="translate(186 65)"><path d="M0 -23L23 0L0 23L-23 0Z" stroke="#adadad" fill="none" stroke-width="1"></path></g><g transform="translate(301 7)"><path d="M0 -23L23 0L0 23L-23 0Z" stroke="#adadad" fill="none" stroke-width="1"></path></g><g transform="translate(752 275)"><path d="M0 -23L23 0L0 23L-23 0Z" stroke="#adadad" fill="none" stroke-width="1"></path></g></g></svg>